<?xml version="1.0" encoding="UTF-8"?>
<svg id="_レイヤー_1" data-name="レイヤー_1" xmlns="http://www.w3.org/2000/svg" viewBox="0 0 63.2 51.4">
  <defs>
    <style>
      .cls-1 {
        fill: #fdd000;
        stroke-width: 1px;
      }

      .cls-1, .cls-2 {
        stroke: #003686;
      }

      .cls-3 {
        fill: #fff;
      }

      .cls-4 {
        fill: #003686;
      }

      .cls-2 {
        fill: #ccc;
        stroke-width: 1px;
      }

      .cls-5 {
        fill: none;
        stroke: #fff;
        stroke-width: .5px;
      }
    </style>
  </defs>
  <path class="cls-2" d="M31.5,44.3s12.5-1.5,18.1-16c3.4-8.8,2.7-27.7,2.7-27.7h-20.8s-20.8,0-20.8,0c0,0-.6,18.9,2.7,27.7,5.6,14.6,18.1,16,18.1,16Z"/>
  <path class="cls-1" d="M16.7,34.4l34.6-14.3c.8-4.3.9-13.6.9-13.6L12,23.1s1.2,7.3,4.8,11.4Z"/>
  <path class="cls-4" d="M13.4,3.6s3.4.1,4,3.4v6.2s0,2,.2,2.1c-.6-.2-1.7-.8-2.8-1.8-.9-.8-1-1.4-1-2.8-.1-3.1.2-5.8-.4-7.1Z"/>
  <path class="cls-4" d="M20.2,18.5c1.4-.6,2.1-2,2.1-2.5V6.1c-.3-2.1-2.1-2.8-2.1-2.8,0,0-1.8.6-2.1,2.8,0,0,0,9.5,0,10s.7,1.9,2.1,2.5Z"/>
  <path class="cls-4" d="M27,3.6s-3.4.1-4,3.4v6.2s0,2-.2,2.1c.6-.2,1.7-.8,2.8-1.8.9-.8,1-1.4,1-2.8.1-3.1-.2-5.8.4-7.1Z"/>
  <path class="cls-4" d="M18.8,30.4c.2-.4,0-.8,0-.8l-1.8-4.5h0s-.6.2-1.3.6c-.3.2-.3.4-.6.7v-1.2c-.1,0,2.2-.9,2.2-.9l2.6-1.1v1.3c0-.2-.3-.3-.7-.2-.7.3-1.1.5-1.1.5l1.8,4.5s.2.4.6.5l-1.9.8Z"/>
  <path class="cls-4" d="M47.4,18.7c.2-.4,0-.8,0-.8l-1.8-4.5h0s-.6.2-1.3.6c-.3.2-.3.4-.6.7v-1.2c-.1,0,2.2-.9,2.2-.9l2.7-1.1v1.3c0-.2-.3-.3-.7-.2-.7.3-1.1.5-1.1.5l1.8,4.5s.2.4.6.5l-1.9.8Z"/>
  <path class="cls-4" d="M27,27c-.2,0-.5,0-.8,0-1.3-.2-3.5-1.7-3.5-1.7.9-.4,1.5-1,1.1-1.9-.3-.6-.9-.6-1.1-.5-.2,0-.9.4-.9.4l1.8,4.5s.2.4.6.5l-1.9.8c.2-.4,0-.8,0-.8l-2-4.9h0c-.1-.2-.4-.3-.4-.3l2.4-1s1.8-.7,2.4.7c0,0,.7,1.2-1,2.1,0,0,3.4,1.7,4.2,1.7,0,0-.6.3-1.2.4Z"/>
  <path class="cls-4" d="M28.1,22.8l-.8-1.9s0-.4,0-.8l-1.8.7c.4.1.6.5.6.5l.9,2.3.9,2.3s0,.4,0,.8l1.8-.7c-.4-.1-.6-.5-.6-.5l-.8-1.9-.3-.7Z"/>
  <path class="cls-4" d="M30.1,25.8c.2-.4,0-.8,0-.8l-.9-2.3-.9-2.3s-.2-.4-.6-.5l3-1.2s3.2-1.1,4.4,1.7c1.1,2.8-1.9,4.2-1.9,4.2l-3,1.2ZM31.1,19.4c-.1,0-1.6.7-1.6.7l.9,2.3.9,2.1s.7-.2,1.6-.6c0,0,1.6-1.2,1-2.8l-.2-.5c-.7-1.5-2.6-1.2-2.6-1.2"/>
  <path class="cls-4" d="M39.9,20.3c-.2.9-1.7,1.4-1.8,1.4-.8.3-.9.1-.9.1l-.8-2,.8-.3c.4-.2.8,0,.8,0l-.4-1-1.5.6-.6-1.5,1.5-.6c.3-.1.8.2.8.2l-.5-1.2-3.7,1.5c.4.1.6.5.6.5l.9,2.3.9,2.3s0,.4,0,.8l1.8-.7,2.3-.9v-1.4Z"/>
  <path class="cls-4" d="M44.5,19.6c0,0,.4.2,1-.1l-1.4-3.3-.8-1.9s-.1-.4,0-.8l-1.6.7c.4.2.6.5.6.5l.9,2.3.4,1.1-4.8-2.7-1.2.5c.4.1.6.5.6.5l.9,2.3.9,2.3s0,.4,0,.8l1.7-.7c-.4-.1-.6-.5-.6-.5l-.8-1.9-.3-.7-.3-.8,3.9,2.3s.5.3.7.3Z"/>
  <path class="cls-4" d="M0,33.5s3.9,6.1,9.5,9l4.1-6.1s-5.7-3.2-8.4-8.7l-.5,5.5-4.7.2Z"/>
  <path class="cls-4" d="M31.6,51.4c-4.6,0-18.8-.7-24.9-8.8l4.2-5.8c5.9,7.1,20.7,7.6,20.7,7.6,0,0,14.8-.5,20.7-7.6l4.2,5.8c-5.3,7.2-20.2,8.8-24.8,8.8Z"/>
  <path class="cls-4" d="M63.2,33.5s-3.9,6.1-9.5,9l-4.1-6s5.7-3.2,8.4-8.7l.5,5.5,4.7.2Z"/>
  <path class="cls-3" d="M14.1,43h-.1c.2-.6.1-1.2-.4-1.6-.3-.2-.6-.2-.8.2-.5.8,1.2,2,.6,3-.3.5-.9.7-1.7.3-.4-.2-.6-.6-.7-.7-.1,0-.2,0-.3,0h-.1c0,0,.5-1.3.5-1.3h.1c0,.4-.2,1.2.5,1.7.4.3.8,0,1-.2.2-.3.2-.5-.3-1.5-.3-.6-.5-1-.2-1.5.4-.6,1-.6,1.5-.3.3.2.5.5.6.6.1,0,.2,0,.3,0h.1c0,0-.6,1.3-.6,1.3Z"/>
  <path class="cls-3" d="M16.2,45.9c-.1.2-.8.8-1.6.4-.6-.3-.9-.9-.5-1.7.4-1.1,1.3-1.1,1.7-.9.5.2.8.7.6,1.5l-1.8-.7c-.4,1,0,1.5.4,1.6.5.2.9,0,1.1-.2h0ZM15.8,44.8c0-.3.2-.7-.3-.9-.3-.1-.6,0-.9.4l1.2.5Z"/>
  <path class="cls-3" d="M18.8,46.8c-.1.2-.7.9-1.6.6-.7-.2-.9-.8-.7-1.7.3-1.1,1.2-1.2,1.7-1.1.6.2.9.6.7,1.4l-1.8-.6c-.3,1.1.1,1.5.5,1.6.5.2.9-.2,1.1-.3h0ZM18.3,45.6c0-.3.1-.7-.4-.9-.3-.1-.6,0-.9.5l1.2.4Z"/>
  <path class="cls-3" d="M18.7,47.6c.4,0,.5,0,.5-.3l.7-2.9c0-.3,0-.4-.2-.4,0,0-.1,0-.2,0h0c.3-.1.6-.1,1-.2h0s-.6,2.5-.6,2.5h0c.3-.1.7-.4,1-.5.1,0,.2-.1.2-.2,0,0,0-.1-.3-.2h0c0,0,1.2.2,1.2.2h0c-.3,0-.5,0-1.5.5h-.2c0,.1.7,1.5.7,1.5.2.5.4.5.6.6h0c0,0-1.3-.2-1.3-.2h0c0,0,.1,0,.1,0,0,0,.1,0,.1,0,0,0,0-.1,0-.2l-.6-1.3h0s-.2,1.1-.2,1.1c0,.3,0,.3.3.4h.1s0,.1,0,.1l-1.4-.3h0Z"/>
  <path class="cls-3" d="M26.4,46.5h-.7c0,0-.2,1.8-.2,1.8,0,.4,0,.5.5.6h0c0,0-1.6,0-1.6,0h0c.4,0,.5-.1.6-.6l.2-1.9h-.5c0,0,0-.3,0-.3h.5c0-.3.2-1.4,1.3-1.2.3,0,.6.2.6.4,0,.2-.2.2-.3.2-.3,0-.2-.5-.5-.5-.3,0-.4.3-.4.5v.7c0,0,.7,0,.7,0v.2Z"/>
  <path class="cls-3" d="M29.1,47.9c0,.6-.5,1.4-1.5,1.4-.8,0-1.3-.7-1.2-1.6,0-.8.6-1.4,1.4-1.3.8,0,1.3.6,1.3,1.5ZM28.5,48c0-.8-.2-1.5-.8-1.5-.4,0-.7.3-.8.9,0,.5,0,1.6.8,1.6.3,0,.7-.2.8-1.1Z"/>
  <path class="cls-3" d="M29.5,47.2c0-.4-.1-.4-.2-.4,0,0-.2,0-.2,0h0c.3-.2.6-.3.9-.4h0s0,.6,0,.6h0c.3-.4.5-.5.7-.5.2,0,.3.1.3.3,0,.2,0,.3-.2.3-.2,0-.3-.2-.4-.2-.1,0-.4.3-.4.5v1.4c0,.4.2.5.5.5h0c0,0-1.5,0-1.5,0h0c.3-.1.4-.2.5-.5v-1.5Z"/>
  <path class="cls-3" d="M36.6,48.9l-1.8.2h0c.6-.2.6-.3.5-.8l-.3-3.1h-.3c-.7.1-.8.2-.9.9h-.1s0-1,0-1l3.4-.4.2,1h-.1c-.2-.6-.4-.7-1.1-.7h-.3s.3,3.2.3,3.2c0,.4.1.5.6.5h0Z"/>
  <path class="cls-3" d="M40.4,48.3l-1.3.2h0c.3-.2.4-.2.3-.7l-.2-1.2c0-.4-.2-.6-.6-.6-.2,0-.4.2-.6.5l.3,1.5c0,.5.2.5.5.5h0c0,0-1.3.3-1.3.3h0c.3-.2.4-.2.3-.7l-.5-2.9c0-.2,0-.3-.3-.3,0,0,0,0-.1,0h0c.3-.2.5-.4.8-.5h0s.3,1.8.3,1.8h0c.2-.3.4-.6.8-.7.7-.1.9.6.9.8l.2,1.2c0,.4.1.5.5.5h0Z"/>
  <path class="cls-3" d="M42.7,45c0,0-.2,0-.2.3l-.4,2.7c-.1.9-.3,1.3-.7,1.4-.3,0-.5,0-.5-.2,0,0,0-.3.2-.3.2,0,.4,0,.5,0,.3,0,.4-1,.3-1.1,0,0-.4-.6-.6-.7l-1-1.3c-.1-.1-.3-.1-.4-.1h0c0,0,1.2-.4,1.2-.4h0c-.1.1-.3.2-.3.3,0,0,0,.2.1.2l1,1.4.2-1.4c0-.2,0-.4,0-.4,0-.1-.1-.2-.3-.1h0c0,0,.8-.3.8-.3h0Z"/>
  <path class="cls-3" d="M44.6,45.2c-.3-.6-.6-.6-.9-.5-.3,0-.4.4-.3.5,0,.1.1.3.4.3l.7.2c.3,0,.6.2.7.6.2.5-.3.9-.6,1-.3,0-.6,0-.7,0,0,0,0,0-.1.1h0s-.3-.9-.3-.9h0c.2.3.4.7,1,.6.2,0,.5-.2.4-.6,0-.2-.2-.3-.4-.3h-.4c-.4-.2-.8-.3-.9-.8,0-.3,0-.8.6-1,.3,0,.5,0,.6,0,0,0,0,0,0-.1h0s.3.8.3.8h0Z"/>
  <path class="cls-3" d="M47.8,45.1c0,.2,0,1.1-.9,1.4-.6.2-1.3,0-1.6-.9-.4-1.1.2-1.7.6-1.9.5-.2,1.1,0,1.4.7l-1.8.7c.4,1,1,1.1,1.4.9.5-.2.6-.7.7-.9h.1ZM46.8,44.5c-.1-.3-.3-.6-.8-.5-.3.1-.5.4-.4.9l1.2-.4Z"/>
  <path class="cls-3" d="M48.3,45.9c.3-.2.4-.3.2-.6l-1.2-2.7c-.1-.3-.2-.3-.4-.2,0,0-.1,0-.2,0h0c.3-.3.5-.5.8-.7h0l1.5,3.3c.1.3.3.3.6.2h0c0,0-1.3.7-1.3.7h0Z"/>
  <path class="cls-3" d="M50.2,42.1l-.7.4.9,1.7c.2.3.3.5.8.2h0c0,0-1.4.9-1.4.9h0c.3-.3.4-.4.2-.8l-.9-1.7-.4.2v-.2c0,0,.3-.2.3-.2-.2-.3-.7-1.3.3-1.8.3-.2.6-.2.7,0,0,.2,0,.3-.1.4-.2.1-.5-.3-.7-.1-.3.2-.2.5,0,.7l.3.6.7-.4v.2Z"/>
  <polyline class="cls-5" points="6.6 42.7 11 36.7 14.1 36.5"/>
  <path class="cls-5" d="M12.8,38.4s-1.7-1.4-1.7-1.7"/>
  <polyline class="cls-5" points="56.6 42.6 52.2 36.5 49.1 36.4"/>
  <path class="cls-5" d="M50.4,38.3s1.7-1.4,1.7-1.7"/>
</svg>